# xmcd
# 
# Track frame offsets:
#     150
#     23420
#     44425
#     61373
#     81263
#     107910
#     125773
#     149380
#     172430
#     183323
# 
# Disc length: 2785
# 
# Revision: 1
# Processed by: cddbd v1.5.2PL0 Copyright (c) Steve Scherf et al.
# Submitted via: fre:ac v1.1rc1
# 
DISCID=910adf0a
DTITLE=鈴木重子 - Love
DYEAR=2007
DGENRE=J-Jazz
TTITLE0=Your Song
TTITLE1=Every Breath You Take
TTITLE2=Luka
TTITLE3=O Circo Mistico
TTITLE4=Kaze wo Atsumete (風をあつめて)
TTITLE5=Raindrops Keep Fallin' On My Head (雨にぬれても)
TTITLE6=Shape Of My Heart
TTITLE7=So Far Away
TTITLE8=Hikari Furu (ひかり ふる)
TTITLE9=Love
EXTD=
EXTT0=
EXTT1=
EXTT2=
EXTT3=
EXTT4=
EXTT5=
EXTT6=
EXTT7=
EXTT8=
EXTT9=
PLAYORDER=
